<?xml version="1.0" standalone="no"?>
<!DOCTYPE svg PUBLIC "-//W3C//DTD SVG 20010904//EN"
 "http://www.w3.org/TR/2001/REC-SVG-20010904/DTD/svg10.dtd">
<svg version="1.0" xmlns="http://www.w3.org/2000/svg"
 width="1600.000000pt" height="896.000000pt" viewBox="0 0 1600.000000 896.000000"
 preserveAspectRatio="xMidYMid meet">

<g transform="translate(0.000000,896.000000) scale(0.100000,-0.100000)"
fill="#000000" stroke="none">
<path d="M0 4480 l0 -4480 8000 0 8000 0 0 4480 0 4480 -8000 0 -8000 0 0
-4480z m5307 755 c30 -66 65 -145 78 -175 12 -30 100 -230 195 -445 95 -214
185 -419 200 -455 15 -36 78 -177 139 -314 61 -137 111 -253 111 -258 0 -4
-241 -8 -535 -8 -591 0 -586 0 -625 62 -27 42 -22 111 13 188 66 144 70 159
72 291 3 142 13 174 68 208 26 16 51 21 101 21 l66 0 0 -36 c0 -30 -9 -46 -59
-97 -67 -71 -110 -149 -113 -204 -2 -63 28 -148 63 -177 27 -23 40 -26 105
-26 l74 0 -7 -75 c-9 -113 -6 -115 172 -115 196 0 275 26 275 90 0 15 -38 112
-84 216 -371 834 -626 1413 -626 1423 0 8 37 11 132 9 l131 -3 54 -120z m1203
63 c15 -35 144 -324 285 -643 141 -319 272 -614 290 -655 36 -79 173 -386 182
-407 4 -10 -70 -13 -351 -13 -349 0 -356 0 -356 20 0 19 7 20 118 20 64 0 135
5 157 11 51 14 105 55 105 79 0 11 -34 98 -76 192 -42 95 -154 351 -249 568
-95 217 -218 497 -273 621 -55 125 -103 236 -107 248 -6 21 -4 21 120 21 l126
0 29 -62z m-1569 -248 c17 -27 38 -54 47 -59 15 -9 12 -15 -20 -48 -105 -110
-249 -372 -458 -833 -83 -184 -172 -379 -197 -432 l-46 -98 -179 0 c-162 0
-179 2 -176 17 2 11 22 20 65 29 75 15 93 25 151 78 140 129 543 841 737 1304
22 50 41 92 42 92 2 0 17 -22 34 -50z m1279 0 c18 -28 39 -54 48 -59 13 -7 8
-18 -34 -64 -54 -59 -133 -206 -269 -499 -71 -153 -93 -185 -110 -159 -5 9 27
97 80 221 13 30 42 102 65 160 23 58 50 123 60 145 10 22 41 100 70 173 29 72
54 132 55 132 2 0 17 -23 35 -50z m2725 -55 c40 -14 50 -14 90 0 25 8 56 15
68 15 28 0 67 -26 67 -46 0 -17 -9 -18 -45 -4 -60 23 -152 -29 -186 -105 -21
-45 -25 -138 -8 -181 12 -34 4 -74 -15 -74 -8 0 -21 25 -31 65 -22 81 -15 138
27 216 20 38 28 63 22 69 -6 6 -30 12 -54 16 -94 12 -180 -70 -180 -171 0 -92
45 -148 258 -325 146 -121 191 -197 179 -302 -16 -133 -115 -208 -277 -210
-111 -2 -180 22 -242 82 -48 46 -53 49 -69 34 -10 -9 -26 -36 -36 -60 -17 -41
-21 -44 -55 -44 -21 0 -38 3 -38 6 0 27 38 140 65 193 36 73 103 151 128 151
11 0 18 -12 22 -37 13 -81 29 -140 46 -174 56 -112 194 -145 266 -63 41 47 57
115 42 187 -10 48 -18 59 -117 152 -202 190 -242 233 -267 287 -42 89 -31 185
27 246 77 79 209 112 313 77z m789 1 c-3 -7 -15 -18 -27 -25 -22 -11 -254 -32
-272 -24 -5 2 -1 -3 9 -11 25 -20 156 -23 156 -3 0 9 2 9 8 -1 5 -7 16 -10 25
-6 23 8 31 -31 32 -143 l0 -93 28 0 28 0 -2 88 -2 87 26 3 27 3 0 -95 0 -96
110 0 c91 0 110 -3 110 -15 0 -12 -19 -15 -110 -15 l-110 0 0 -250 c0 -226 2
-254 19 -288 10 -20 27 -45 38 -54 27 -24 87 -48 123 -48 23 0 30 -4 30 -20 0
-17 -7 -20 -42 -20 -24 0 -61 9 -84 19 -40 18 -114 94 -114 117 0 7 -5 14 -11
16 -7 2 -11 87 -11 261 l-1 257 -25 0 -24 0 2 -302 c3 -376 4 -368 -15 -368
-13 0 -15 44 -15 340 l0 340 -105 0 -105 0 0 -340 0 -340 -65 0 -65 0 -2 338
-3 337 -97 3 c-78 2 -98 6 -98 17 0 13 39 15 263 16 144 1 265 1 270 0 4 0 7
48 7 108 l0 109 -127 4 c-116 3 -134 7 -188 33 l-60 29 99 8 c54 4 133 14 175
22 105 19 202 20 195 2z m-1996 -98 c22 -57 97 -254 167 -438 70 -184 138
-354 151 -377 25 -43 89 -83 132 -83 13 0 22 -6 22 -15 0 -13 -33 -15 -240
-15 -238 0 -241 0 -230 20 8 15 21 20 53 20 45 1 87 27 87 54 0 19 -79 237
-90 250 -9 9 -284 14 -343 6 l-38 -5 -39 -102 c-52 -138 -56 -160 -34 -184 10
-11 30 -19 50 -19 23 0 37 -6 44 -20 10 -20 8 -20 -130 -20 -144 0 -165 7
-111 35 65 33 71 46 297 662 63 171 114 316 114 322 0 6 20 11 49 11 l49 0 40
-102z m2749 -228 c113 -49 181 -163 190 -321 13 -205 -91 -358 -265 -389 -111
-20 -223 13 -297 88 -127 127 -140 380 -28 526 38 50 117 102 176 117 56 14
168 4 224 -21z m1417 16 c62 -19 111 -58 138 -109 20 -37 22 -58 23 -177 l0
-135 -207 -3 -208 -2 0 -73 c0 -114 43 -174 133 -184 88 -10 164 41 187 127
l11 40 54 0 c30 0 56 -4 59 -8 12 -20 -18 -87 -58 -127 -55 -54 -120 -77 -226
-77 -134 -1 -225 46 -271 139 -23 45 -24 58 -24 233 0 175 1 188 24 233 53
107 225 165 365 123z m-684 -16 c113 -30 179 -149 146 -263 -22 -77 -106 -147
-175 -147 -34 0 -31 -15 10 -66 81 -99 180 -193 207 -196 14 -2 27 -9 30 -15
2 -9 -10 -13 -44 -13 -47 0 -49 1 -147 100 -55 54 -104 98 -110 97 -5 -1 -12
5 -14 13 -4 13 -3 13 6 0 6 -8 11 -10 10 -5 0 15 -69 90 -69 76 0 -8 -5 -9
-17 -2 -12 7 -21 5 -30 -7 -12 -16 -13 -16 -7 1 4 12 1 17 -11 17 -17 0 -16
-5 18 -53 15 -23 22 -26 29 -15 7 10 8 8 4 -5 -3 -10 -1 -23 4 -30 87 -109
100 -129 100 -157 l0 -30 -95 0 c-78 0 -95 3 -95 15 0 11 14 15 58 16 31 1 61
1 65 0 15 -2 18 28 6 51 -30 56 -143 208 -156 208 -10 0 -13 -30 -13 -145 l0
-145 -65 0 -65 0 0 355 0 354 73 3 c122 5 307 -1 347 -12z m-4765 -282 c0 -9
-15 -27 -34 -40 -45 -31 -77 -95 -96 -198 -9 -47 -18 -95 -21 -107 -7 -35 -32
-28 -38 10 -3 17 -11 61 -16 97 -14 82 -50 157 -95 199 -64 58 -54 62 139 59
143 -3 161 -5 161 -20z"/>
<path d="M4414 4038 c-5 -13 -8 -27 -9 -33 0 -5 -6 -9 -13 -8 -7 2 -9 -4 -5
-14 5 -12 3 -14 -7 -8 -9 5 -11 4 -6 -4 10 -15 -13 -43 -28 -34 -6 4 -5 0 2
-9 9 -11 10 -18 2 -23 -5 -3 -11 -16 -11 -28 -1 -17 -2 -18 -6 -4 -2 9 -8 17
-13 17 -5 0 -5 -13 0 -28 4 -17 4 -36 -2 -46 -5 -10 -8 -20 -5 -22 2 -3 11 12
20 33 8 21 30 70 48 108 18 39 33 75 35 80 1 6 5 18 9 28 4 9 5 17 2 17 -3 0
-9 -10 -13 -22z"/>
<path d="M4262 3794 c-7 -14 -8 -23 -3 -20 5 4 12 -8 16 -25 l7 -31 14 26 c9
19 10 33 3 49 -9 20 -9 20 -4 -5 3 -15 1 -30 -5 -33 -10 -6 -15 13 -12 48 2
24 -3 21 -16 -9z"/>
<path d="M4226 3733 c-6 -14 -5 -15 5 -6 7 7 10 15 7 18 -3 3 -9 -2 -12 -12z"/>
<path d="M4250 3741 c0 -17 12 -41 20 -41 10 0 1 38 -11 46 -5 3 -9 1 -9 -5z"/>
<path d="M8653 4906 c-17 -20 -19 -26 -7 -30 9 -3 14 1 14 12 0 10 5 23 12 30
7 7 10 12 7 12 -3 0 -15 -11 -26 -24z"/>
<path d="M8614 4857 c-3 -9 0 -26 7 -39 9 -17 14 -19 17 -8 3 7 0 16 -6 18 -7
2 -12 8 -12 14 0 6 7 7 16 4 10 -4 14 -1 12 6 -6 18 -27 21 -34 5z"/>
<path d="M8603 4770 c8 -85 55 -167 71 -124 3 8 -1 14 -10 14 -9 0 -14 6 -11
13 9 25 -13 112 -34 132 l-21 20 5 -55z m37 -22 c0 -6 -7 -5 -15 2 -8 7 -15
17 -15 22 0 6 7 5 15 -2 8 -7 15 -17 15 -22z m-3 -50 c4 -28 -6 -18 -12 12 -2
12 -1 20 2 16 4 -4 8 -16 10 -28z"/>
<path d="M8674 4618 c-5 -7 -2 -8 6 -3 10 6 12 4 6 -10 -5 -15 -4 -16 9 -5 19
15 19 16 0 23 -8 4 -17 1 -21 -5z"/>
<path d="M8703 4576 c3 -6 9 -10 14 -9 6 1 16 -9 23 -23 8 -14 20 -22 27 -19
8 3 11 0 8 -6 -4 -6 2 -13 14 -16 11 -3 18 -9 15 -14 -3 -5 2 -6 12 -2 15 5
14 7 -2 16 -11 6 -23 16 -27 24 -4 7 -15 13 -23 13 -8 0 -19 11 -25 23 -10 23
-44 35 -36 13z"/>
<path d="M8828 4471 c8 -4 13 -12 13 -17 -1 -5 4 -9 9 -9 6 0 15 -6 19 -14 6
-9 11 -10 15 -2 4 6 0 18 -8 27 -9 8 -16 12 -16 8 0 -5 -5 -3 -12 4 -7 7 -17
12 -22 12 -6 0 -5 -4 2 -9z"/>
<path d="M8890 4420 c0 -5 14 -17 31 -26 24 -12 30 -12 27 -2 -3 7 -11 13 -19
13 -8 1 -13 6 -11 13 1 7 -5 12 -13 12 -8 0 -15 -4 -15 -10z"/>
<path d="M8930 4369 c0 -5 7 -9 16 -9 8 0 13 -4 10 -8 -2 -4 0 -14 5 -22 8
-11 9 -7 6 15 -5 27 -4 28 9 11 8 -11 17 -16 21 -12 9 9 -24 30 -49 32 -10 1
-18 -3 -18 -7z"/>
<path d="M8997 4324 c7 -3 9 -12 7 -19 -3 -8 -2 -19 2 -26 8 -13 13 -49 15
-119 2 -33 -5 -58 -25 -94 -27 -49 -27 -49 -4 -34 13 9 22 22 20 28 -1 6 2 9
7 5 17 -10 41 40 47 96 4 41 3 50 -5 39 -9 -11 -10 -4 -6 29 4 38 3 42 -10 31
-8 -7 -12 -17 -8 -23 3 -6 1 -7 -5 -3 -8 5 -9 13 -2 26 7 13 6 19 -5 24 -8 3
-15 11 -15 17 0 8 4 8 15 -1 8 -7 15 -8 15 -3 0 15 -23 33 -39 32 -10 0 -11
-2 -4 -5z"/>
<path d="M8568 4222 c-26 -31 -68 -101 -68 -113 0 -7 -7 -21 -16 -31 -14 -15
-15 -20 -3 -35 12 -15 12 -16 -3 -10 -13 5 -18 1 -18 -13 0 -19 1 -19 19 -3
15 12 17 21 10 34 -6 12 -5 20 1 24 6 4 9 3 8 -2 -2 -4 2 -8 7 -8 6 0 9 6 9
13 -1 7 0 11 3 8 5 -5 33 18 33 28 0 3 -9 3 -19 1 -14 -2 -18 1 -14 10 4 12 9
12 33 0 37 -19 46 -19 30 0 -9 10 -9 15 -1 15 6 0 11 -3 12 -7 3 -32 10 -49
28 -65 12 -10 17 -13 11 -6 -6 7 -4 16 8 25 9 8 11 11 3 7 -10 -5 -13 -3 -9 8
4 8 -2 30 -13 47 -10 17 -19 42 -19 56 0 31 -14 39 -32 17z"/>
<path d="M8650 4050 c0 -5 10 -14 23 -20 20 -10 20 -10 5 3 -10 8 -15 17 -11
20 3 4 1 7 -5 7 -7 0 -12 -4 -12 -10z"/>
<path d="M9323 4320 c0 -303 1 -320 19 -320 10 0 18 7 18 18 0 14 2 15 10 2 8
-12 10 -11 10 8 0 12 -4 22 -9 22 -6 0 -7 24 -4 55 5 48 4 55 -12 55 -16 0
-17 -7 -12 -67 3 -42 2 -56 -3 -38 -14 53 -11 105 5 111 12 5 15 23 14 83 0
52 -3 70 -9 56 -6 -14 -8 -2 -8 40 0 45 2 53 7 30 7 -28 8 -26 14 20 10 88 8
167 -6 162 -8 -3 -12 8 -12 36 0 22 -5 42 -11 44 -8 3 -11 -86 -11 -317z"/>
<path d="M7516 4607 c-43 -116 -81 -218 -84 -224 -3 -10 34 -13 168 -13 l171
0 -7 23 c-23 74 -158 427 -163 427 -3 0 -42 -96 -85 -213z"/>
<path d="M10277 4647 c-89 -28 -148 -111 -168 -239 -35 -227 70 -408 238 -408
81 0 148 59 174 154 19 67 16 291 -4 358 -38 124 -121 172 -240 135z"/>
<path d="M10513 4594 c10 -12 17 -25 16 -30 -2 -5 4 -29 12 -54 10 -32 13 -93
13 -205 -1 -154 -2 -162 -28 -209 -15 -27 -25 -50 -23 -53 8 -7 67 74 67 91 0
9 4 16 9 16 20 0 35 79 35 180 0 93 -3 112 -28 167 -15 33 -42 74 -59 90 -18
15 -24 18 -14 7z"/>
<path d="M10050 4468 c-19 -55 -23 -177 -6 -238 l15 -55 -5 50 c-8 70 -5 182
6 230 11 49 6 57 -10 13z"/>
<path d="M10075 4130 c9 -16 18 -30 21 -30 2 0 -2 14 -11 30 -9 17 -18 30 -21
30 -2 0 2 -13 11 -30z"/>
<path d="M11746 4650 c-15 -5 -37 -17 -48 -27 -41 -37 -48 -67 -48 -198 l0
-126 141 3 141 3 -1 130 c-2 148 -14 185 -66 209 -36 17 -74 19 -119 6z"/>
<path d="M11941 4598 c8 -14 15 -74 17 -155 l4 -133 25 0 25 0 -4 115 c-2 83
-7 118 -16 124 -8 5 -13 11 -13 15 3 19 -1 25 -25 41 -25 16 -25 16 -13 -7z"/>
<path d="M11568 4558 c-21 -30 -23 -46 -26 -172 -4 -156 4 -269 19 -260 6 3 8
13 4 23 -5 13 -4 14 7 3 10 -10 10 -16 0 -32 -7 -11 -8 -20 -3 -20 5 0 12 6
15 13 3 6 4 0 2 -15 -1 -15 0 -25 5 -22 4 2 12 -4 18 -13 16 -27 13 -10 -5 33
-14 33 -17 71 -14 234 1 107 4 210 5 228 2 17 2 32 0 32 -2 0 -14 -15 -27 -32z"/>
<path d="M11986 4118 c-3 -17 -18 -46 -32 -65 -29 -38 -21 -43 17 -10 56 49
78 107 40 107 -13 0 -20 -10 -25 -32z"/>
<path d="M10836 4642 c-3 -3 -6 -146 -6 -319 l0 -313 25 0 25 0 0 314 c0 302
-1 314 -19 319 -11 3 -22 2 -25 -1z"/>
<path d="M10937 4643 c-4 -3 -7 -82 -7 -175 l0 -168 88 0 c99 0 159 22 196 73
29 39 29 137 0 192 -32 62 -81 85 -185 85 -47 0 -89 -3 -92 -7z"/>
<path d="M11232 4579 c13 -25 25 -45 28 -44 3 2 2 -29 -3 -68 -4 -40 -8 -82
-8 -94 -1 -13 -4 -21 -8 -19 -3 2 -14 -7 -24 -20 -27 -36 -3 -29 43 12 48 44
65 93 44 132 -8 16 -10 28 -4 30 12 4 14 32 3 32 -5 0 -16 14 -26 31 -9 17
-23 29 -30 26 -6 -2 -18 3 -25 12 -7 9 -2 -5 10 -30z"/>
</g>
</svg>
